<?xml version="1.0" standalone="no"?>
<!DOCTYPE svg PUBLIC "-//W3C//DTD SVG 20010904//EN"
 "http://www.w3.org/TR/2001/REC-SVG-20010904/DTD/svg10.dtd">
<svg version="1.0" xmlns="http://www.w3.org/2000/svg"
 width="501.000000pt" height="501.000000pt" viewBox="0 0 501.000000 501.000000"
 preserveAspectRatio="xMidYMid meet">
<metadata>
Created by potrace 1.14, written by Peter Selinger 2001-2017
</metadata>
<g transform="translate(0.000000,501.000000) scale(0.100000,-0.100000)"
fill="#000000" stroke="none">
<path d="M2349 4936 c-2 -2 -38 -6 -79 -10 -86 -7 -115 -12 -220 -32 -41 -8
-86 -17 -100 -20 -50 -10 -257 -78 -340 -112 -422 -173 -791 -458 -1055 -817
-156 -213 -277 -447 -357 -690 -52 -158 -79 -283 -113 -515 -11 -72 -14 -388
-4 -470 8 -67 25 -192 34 -245 38 -227 159 -553 293 -785 190 -331 512 -659
848 -863 93 -57 287 -154 365 -182 201 -74 415 -130 574 -150 17 -3 61 -9 99
-16 69 -11 436 -8 485 4 13 4 48 9 76 12 198 19 516 116 740 224 365 177 712
470 928 781 57 83 108 163 139 220 75 136 85 157 117 235 18 44 38 94 46 110
28 64 88 273 101 350 3 22 8 43 9 46 2 3 7 28 11 55 3 27 8 52 10 55 9 16 19
206 19 374 0 203 -5 270 -30 405 -9 47 -19 101 -22 120 -10 63 -72 263 -115
370 -165 411 -427 758 -794 1051 -51 40 -257 171 -329 208 -382 199 -733 287
-1156 289 -97 1 -178 0 -180 -2z m-1376 -3110 c344 -20 723 -166 1008 -391 94
-74 249 -232 321 -327 67 -87 154 -230 190 -312 l26 -59 -24 -19 c-13 -11 -24
-25 -24 -33 0 -7 -11 -20 -24 -28 -28 -19 -222 -21 -245 -3 -11 8 -13 8 -7 -1
5 -9 2 -11 -8 -7 -9 3 -13 11 -10 16 4 6 -1 6 -13 -1 -11 -6 -23 -7 -27 -4 -7
7 -17 9 -80 18 -120 16 -416 145 -571 249 -185 123 -381 320 -498 499 -71 109
-197 363 -197 398 0 8 45 17 65 13 6 -2 59 -5 118 -8z"/>
</g>
</svg>
